<svg xmlns="http://www.w3.org/2000/svg" xmlns:xlink="http://www.w3.org/1999/xlink" version="1.1" x="0px" y="0px" viewBox="0 0 50 62.5" enable-background="new 0 0 50 50" xml:space="preserve"><g><path d="M48.2,16.8c-0.7-4.6-2.9-8.5-4.4-12.9c-1.1,2.1-2.3,3.2-3.3,6.7c-1.7,5.9-5.5,7.5-8.9,10.9   c-5.4,5.3-6.6,11.4-6.7,15.1c2.4-3.6,6.1-6.3,9.6-9.1c0.5-2.7-0.5-5.9,2.7-7.7c-2.2,1.6-1.6,4.1-1.2,6.5c3.3-2.8,6.3-5.9,7.5-10.3   c-0.6,3.4-2.1,6.1-4,8.4c2.5,0.8,5.2,2.4,7.4,0.4c-2.6,3-5.8,0.9-8.7,1.1c-2,2.2-4.2,4.3-6.3,6.4c3,0.5,6.1,3.1,8.8,0.7   c-3.4,3.9-7.7-0.8-11.2,2c-1.2,1.5-2.2,3.2-2.9,5l3,0.4c3.6,0.5,7.2,0.5,10.7-0.9c4.7-1.9,7.1-5.5,8.1-10.2   C49.4,25.2,48.9,21,48.2,16.8z"/><path d="M34.1,29.2c0,0-7.3,5-11.8,12.5c-2.5-2.6-5.2-6.4-6.7-11.4c0,0,1.4,7.5,5.7,13.1   c-0.2,0.4-0.5,0.9-0.7,1.4l2.5,1.3C24.7,41.3,27.9,34.7,34.1,29.2z"/><path d="M10,25.2c0.5,2,2.4,2.4,4.1,2.9c-0.9-3.2-2.1-6.2-4.8-8.4c2.2,1.5,3.6,3.3,4.6,5.4c1.4-1.5,3.3-2.8,2.6-5   c1.3,2.8-1.2,4.3-1.9,6.4c0.9,2.1,1.6,4.3,2.5,6.4c1.2-1.9,4.1-3.3,3.3-5.9c1.6,3.6-2.9,5.1-2.1,8.4c0.7,1.3,1.5,2.5,2.6,3.6l1.2-2   c1.5-2.3,2.6-4.8,2.7-7.7c0.2-3.9-1.6-6.6-4.5-8.8c-2.6-1.9-5.7-2.9-8.9-3.8c-3.4-0.9-6.8-0.6-10.3-1C2.1,17,2.5,18.2,4.6,20   c3.6,3.1,3.5,6.2,4.8,9.6c2,5.4,5.9,8.1,8.4,9.3c-1.7-2.8-2.4-6.2-3.3-9.5C12.8,28.3,10.3,28,10,25.2z"/></g><text x="0" y="65" fill="#000000" font-size="5px" font-weight="bold" font-family="'Helvetica Neue', Helvetica, Arial-Unicode, Arial, Sans-serif">Created by Vectors Market</text><text x="0" y="70" fill="#000000" font-size="5px" font-weight="bold" font-family="'Helvetica Neue', Helvetica, Arial-Unicode, Arial, Sans-serif">from the Noun Project</text></svg>